<?xml version="1.0" standalone="no"?>
<!DOCTYPE svg PUBLIC "-//W3C//DTD SVG 20010904//EN"
 "http://www.w3.org/TR/2001/REC-SVG-20010904/DTD/svg10.dtd">
<svg version="1.0" xmlns="http://www.w3.org/2000/svg"
 width="600.000000pt" height="600.000000pt" viewBox="0 0 600.000000 600.000000"
 preserveAspectRatio="xMidYMid meet">
<metadata>
Created by potrace 1.11, written by Peter Selinger 2001-2013
</metadata>
<g transform="translate(0.000000,600.000000) scale(0.100000,-0.100000)"
fill="#000000" stroke="none">
<path d="M2982 5877 c-6 -7 -16 -34 -22 -59 -10 -40 -10 -54 4 -88 22 -56 21
-60 -18 -60 -36 0 -74 -25 -77 -50 -4 -38 0 -41 33 -24 29 15 32 15 44 -1 17
-23 9 -85 -16 -134 -67 -132 -160 -159 -287 -84 -50 29 -68 49 -53 58 30 18
-3 95 -41 95 -53 0 -80 -74 -38 -104 19 -13 21 -21 15 -57 -10 -62 -35 -109
-70 -130 -57 -35 -108 -19 -177 54 -44 47 -49 79 -17 101 22 15 52 8 71 -18 5
-6 5 0 1 14 -9 32 -27 50 -63 60 -39 11 -80 1 -92 -21 -9 -18 -12 -18 -52 14
-52 42 -104 70 -117 62 -6 -4 5 -18 22 -33 99 -81 228 -281 293 -455 10 -26
21 -50 26 -52 4 -3 41 4 81 15 72 19 149 36 218 46 19 3 41 7 48 9 19 7 215
19 302 19 171 0 308 -16 506 -58 11 -2 45 -11 74 -20 65 -19 80 -20 80 -3 0
27 100 229 158 319 34 52 89 121 123 153 87 83 59 90 -48 11 -55 -40 -59 -42
-73 -25 -15 18 -32 22 -82 20 -29 -1 -63 -31 -71 -63 -5 -18 -4 -19 12 -4 37
33 82 16 81 -32 -1 -40 -110 -132 -157 -132 -55 0 -96 40 -118 113 -20 66 -19
80 5 95 42 26 16 102 -34 102 -44 0 -75 -67 -45 -97 16 -16 -61 -70 -128 -89
-83 -24 -148 5 -197 89 -61 104 -49 206 18 162 22 -14 24 -14 30 2 12 31 -26
68 -72 71 -47 4 -48 5 -26 58 18 44 14 102 -10 139 -18 28 -29 31 -44 12z"/>
<path d="M2145 4971 c-38 -10 -142 -35 -230 -55 -88 -21 -189 -44 -225 -53
-77 -18 -105 -42 -88 -78 12 -27 57 -46 151 -65 64 -13 71 -21 82 -101 3 -24
8 -55 10 -69 7 -44 24 -217 30 -315 2 -38 7 -110 10 -160 4 -49 8 -112 10
-140 4 -70 15 -229 21 -300 30 -424 20 -1095 -21 -1415 -3 -19 -7 -57 -11 -85
-13 -119 -69 -359 -113 -494 -79 -237 -174 -415 -296 -550 -51 -58 -57 -67
-52 -98 10 -58 117 -163 165 -163 68 0 231 254 325 505 33 90 92 284 106 355
6 30 14 66 16 80 22 107 36 182 45 253 6 45 13 93 15 107 10 70 15 122 21 190
3 41 7 91 9 110 16 147 22 640 12 960 -5 161 -5 164 9 105 16 -63 122 -530
154 -675 10 -47 30 -137 45 -200 14 -63 29 -126 31 -140 17 -83 56 -247 135
-565 49 -198 91 -369 93 -380 3 -11 13 -58 24 -105 20 -81 65 -302 76 -365 3
-16 8 -46 11 -65 4 -19 8 -47 10 -63 2 -15 9 -62 14 -105 6 -42 14 -117 17
-165 3 -48 7 -96 9 -105 2 -9 4 -22 4 -29 2 -22 63 -56 125 -69 117 -24 267
-3 319 46 10 9 20 35 22 56 2 21 6 71 9 109 6 64 12 116 21 185 14 102 18 127
21 145 2 11 9 47 14 80 6 33 15 80 20 105 5 25 12 56 14 70 10 60 64 291 151
640 92 370 108 440 160 675 15 66 28 127 30 135 4 16 33 144 45 200 7 31 53
231 65 285 3 10 21 91 40 180 20 88 38 165 40 170 2 6 1 -60 -2 -145 -10 -326
-5 -738 11 -960 6 -81 17 -194 21 -230 3 -19 7 -54 10 -77 11 -93 16 -129 20
-143 2 -8 7 -35 10 -60 21 -153 82 -396 142 -565 91 -259 265 -535 335 -535
55 0 168 120 168 179 0 11 -25 49 -56 83 -31 35 -75 90 -97 122 -105 155 -221
450 -271 691 -24 120 -29 147 -42 240 -11 84 -12 97 -19 180 -4 44 -8 94 -10
110 -23 197 -23 931 0 1215 4 52 9 122 20 285 3 39 7 104 10 145 3 41 8 109
11 150 16 230 42 443 59 470 3 5 31 14 63 20 90 17 138 38 150 65 22 49 0 58
-308 130 -157 36 -292 68 -300 70 -8 2 -23 -2 -33 -9 -26 -20 -118 -333 -192
-651 -45 -196 -40 -172 -50 -220 -4 -22 -9 -47 -11 -55 -1 -8 -28 -136 -59
-285 -31 -148 -59 -281 -61 -294 -6 -31 -95 -451 -139 -656 -19 -89 -37 -179
-41 -200 -3 -22 -8 -43 -10 -46 -2 -3 -6 -21 -9 -40 -3 -19 -17 -86 -31 -149
-14 -63 -28 -126 -30 -140 -3 -14 -18 -86 -34 -162 -16 -75 -32 -149 -34 -165
-3 -15 -15 -73 -27 -128 -12 -55 -22 -106 -22 -113 -1 -27 -16 5 -22 47 -3 23
-11 55 -16 70 -6 14 -10 28 -10 31 2 9 -11 75 -55 285 -25 116 -46 219 -48
231 -5 24 -76 360 -111 519 -13 61 -26 124 -28 140 -3 17 -20 95 -37 175 -31
142 -35 163 -44 206 -2 12 -14 64 -25 115 -11 52 -23 110 -26 129 -3 19 -12
63 -20 96 -8 34 -16 73 -19 85 -4 26 -19 101 -21 109 -1 4 -9 42 -22 105 -6
32 -24 117 -33 155 -4 19 -13 59 -19 88 -6 29 -18 80 -27 115 -9 34 -17 70
-19 79 -8 37 -77 296 -97 357 -43 138 -49 155 -66 167 -20 16 -11 16 -97 -5z"/>
<path d="M2867 4964 c-1 -1 -36 -4 -77 -8 -41 -3 -95 -9 -120 -12 -58 -7 -278
-51 -289 -58 -5 -3 5 -50 21 -103 16 -54 31 -106 33 -116 12 -58 8 -56 93 -35
42 10 95 21 117 23 22 3 47 7 55 10 84 24 428 23 612 -1 53 -7 218 -43 229
-50 5 -2 16 21 25 53 14 51 45 156 60 204 3 12 -3 18 -23 22 -15 2 -73 14
-128 25 -55 11 -120 23 -145 26 -25 2 -72 8 -105 12 -53 6 -352 13 -358 8z"/>
<path d="M1653 4557 c-362 -244 -642 -564 -832 -952 -93 -188 -180 -445 -205
-605 -3 -19 -8 -44 -10 -55 -2 -12 -7 -48 -11 -80 -4 -33 -10 -69 -12 -80 -9
-38 -10 -410 -1 -480 13 -110 38 -254 54 -325 85 -361 262 -712 504 -1005 32
-38 255 -261 297 -297 110 -93 288 -213 427 -287 156 -83 457 -196 579 -216
17 -3 46 -10 62 -15 17 -5 55 -12 85 -15 30 -4 57 -8 60 -10 3 -2 41 -7 85
-11 148 -16 515 -10 610 10 11 2 40 7 65 11 85 14 95 16 190 40 201 51 404
132 585 233 350 195 666 497 880 843 236 381 358 810 360 1259 0 198 -9 308
-40 473 -119 632 -488 1188 -1038 1565 -104 71 -102 72 -112 -36 -3 -31 -9
-90 -13 -130 -5 -39 -6 -76 -3 -81 3 -5 40 -34 81 -65 178 -135 355 -323 483
-514 71 -105 170 -291 206 -387 13 -33 27 -69 31 -80 30 -70 75 -240 94 -355
25 -144 28 -180 31 -335 3 -183 -5 -269 -40 -465 -41 -223 -160 -517 -292
-722 -58 -91 -144 -205 -189 -251 -9 -9 -7 -19 9 -41 26 -37 33 -111 14 -157
-19 -47 -119 -153 -163 -174 -67 -31 -145 -16 -182 36 -11 16 -21 12 -115 -51
-112 -75 -303 -175 -412 -215 -163 -61 -381 -115 -525 -130 -36 -3 -87 -13
-114 -21 -55 -15 -244 -14 -286 3 -14 6 -52 13 -85 17 -180 19 -399 73 -550
135 -156 65 -303 142 -422 222 -40 27 -75 49 -78 49 -3 0 -23 -14 -44 -31 -45
-36 -98 -41 -155 -14 -44 21 -144 127 -163 174 -19 44 -12 124 11 150 21 23
16 46 -17 81 -90 98 -198 269 -283 445 -194 403 -254 836 -179 1293 55 338
215 689 443 977 81 101 263 279 369 360 73 54 91 74 88 90 -2 11 -7 52 -10 90
-4 39 -9 85 -12 104 -2 18 -6 44 -7 57 -2 13 -5 26 -7 28 -2 3 -46 -23 -96
-57z"/>
<path d="M2868 4605 c-2 -1 -34 -5 -73 -9 -98 -9 -220 -29 -288 -47 -37 -10
-38 -12 -31 -42 14 -66 14 -67 101 -46 43 10 102 21 133 25 30 3 58 8 63 11
15 9 344 11 412 2 39 -5 88 -11 110 -14 22 -3 79 -13 127 -24 l87 -18 10 46
c6 29 6 50 0 56 -5 5 -9 6 -9 3 0 -4 -15 -2 -32 3 -18 5 -49 12 -68 15 -19 3
-37 7 -40 9 -3 2 -33 6 -65 10 -33 3 -69 9 -79 12 -20 6 -352 13 -358 8z"/>
<path d="M1705 4153 c-222 -177 -426 -432 -557 -693 -207 -415 -267 -878 -174
-1342 65 -326 244 -692 457 -932 5 -6 17 0 29 15 11 13 24 29 30 36 15 18 15
18 -43 91 -105 134 -189 276 -262 446 -46 110 -99 276 -111 351 -3 22 -8 43
-9 46 -2 3 -7 28 -10 55 -4 27 -10 76 -15 109 -9 66 -6 396 5 460 3 22 11 65
17 95 6 30 12 62 13 70 1 8 16 64 34 125 112 383 316 695 628 964 l62 53 -2
54 c-1 30 -6 54 -12 54 -5 0 -41 -26 -80 -57z"/>
<path d="M4209 4208 c0 -2 -2 -26 -5 -54 l-4 -52 52 -43 c75 -61 214 -202 279
-284 230 -287 381 -644 426 -1007 10 -80 10 -371 0 -460 -4 -37 -14 -98 -21
-136 -8 -37 -17 -79 -19 -93 -9 -45 -49 -172 -77 -244 -74 -185 -153 -328
-262 -474 l-79 -104 27 -38 c14 -21 31 -35 37 -33 17 8 90 102 164 212 135
202 256 489 298 707 33 172 40 247 40 435 0 190 -6 256 -41 430 -59 298 -225
642 -424 881 -118 142 -383 384 -391 357z"/>
<path d="M1795 922 c-14 -20 -25 -40 -25 -45 0 -21 311 -203 425 -247 157 -62
257 -92 415 -124 95 -20 91 -21 80 10 -6 14 -10 36 -10 49 0 29 -4 31 -55 39
-211 33 -510 157 -717 296 l-88 59 -25 -37z"/>
<path d="M4080 894 c-196 -134 -498 -258 -706 -290 -48 -7 -52 -10 -55 -54 -2
-19 -8 -41 -13 -49 -9 -12 -5 -13 24 -8 19 4 46 9 60 12 180 34 372 99 533
181 92 47 247 140 288 172 l23 20 -27 41 c-15 22 -28 41 -30 40 -1 0 -45 -30
-97 -65z"/>
</g>
</svg>
